<?xml version="1.0" encoding="UTF-8" standalone="no"?>
<!DOCTYPE svg PUBLIC "-//W3C//DTD SVG 1.1//EN" "http://www.w3.org/Graphics/SVG/1.1/DTD/svg11.dtd">
<svg width="100%" height="100%" viewBox="0 0 300 200" version="1.1" xmlns="http://www.w3.org/2000/svg" xmlns:xlink="http://www.w3.org/1999/xlink" xml:space="preserve" xmlns:serif="http://www.serif.com/" style="fill-rule:evenodd;clip-rule:evenodd;stroke-linejoin:round;stroke-miterlimit:2;">
    <g transform="matrix(0.937185,0,0,0.928042,4.711111,4.461376)">
        <rect x="75" y="20" width="150" height="42" style="fill:rgb(0,114,188);"/>
    </g>
    <g transform="matrix(0.937185,0,0,1.075214,4.711111,-4.964103)">
        <rect x="75" y="66" width="150" height="52" style="fill:rgb(0,114,188);"/>
    </g>
    <g transform="matrix(0.937185,0,0,0.877249,4.711111,20.131217)">
        <rect x="75" y="122" width="150" height="42" style="fill:rgb(0,114,188);"/>
    </g>
    <g transform="matrix(1,0,0,1,13,0)">
        <path d="M87.489,72.978L119.274,73.153L119.222,89.2L141.956,73.156L183.244,72.978L160.733,90.4L184.489,113.867L140.178,113.511L119.044,92.178L119.333,114.4L87.844,114.044L87.489,72.978Z" style="fill:rgb(255,241,0);fill-rule:nonzero;"/>
    </g>
</svg>
